# This file uses centimeters as units for non-parametric coordinates.

mtllib chimenea.mtl
g default
v 0.614517 0.052110 -3.771762
v 1.614517 0.052110 -3.771762
v 0.614517 5.206856 -3.771762
v 1.614517 5.206856 -3.771762
v 0.614517 5.206856 -4.771762
v 1.614517 5.206856 -4.771762
v 0.614517 0.052110 -4.771762
v 1.614517 0.052110 -4.771762
vt 0.750032 0.000000
vt 0.750032 1.000000
vt 0.250032 1.000000
vt -0.249968 1.000000
vt -0.249968 0.000000
vt 1.750032 1.000000
vt 2.250032 1.000000
vt 2.750032 1.000000
vt 1.250032 1.000000
vt 1.750032 0.000000
vt 1.250032 0.000000
vt 0.250032 0.000000
vn 0.000000 0.000000 1.000000
vn 0.000000 0.000000 1.000000
vn 0.000000 0.000000 1.000000
vn 0.000000 0.000000 1.000000
vn 0.000000 1.000000 0.000000
vn 0.000000 1.000000 0.000000
vn 0.000000 1.000000 0.000000
vn 0.000000 1.000000 0.000000
vn 0.000000 0.000000 -1.000000
vn 0.000000 0.000000 -1.000000
vn 0.000000 0.000000 -1.000000
vn 0.000000 0.000000 -1.000000
vn 0.000000 -1.000000 0.000000
vn 0.000000 -1.000000 0.000000
vn 0.000000 -1.000000 0.000000
vn 0.000000 -1.000000 0.000000
vn 1.000000 0.000000 0.000000
vn 1.000000 0.000000 0.000000
vn 1.000000 0.000000 0.000000
vn 1.000000 0.000000 0.000000
vn -1.000000 0.000000 0.000000
vn -1.000000 0.000000 0.000000
vn -1.000000 0.000000 0.000000
vn -1.000000 0.000000 0.000000
s off
g pasted__pCube3 group
usemtl lambert2SG
f 1/12/1 2/1/2 4/2/3 3/3/4
f 3/7/5 4/8/6 6/9/7 5/6/8
f 5/6/9 6/9/10 8/11/11 7/10/12
f 7/10/13 8/11/14 2/1/15 1/12/16
f 2/1/17 8/11/18 6/9/19 4/2/20
f 7/5/21 1/12/22 3/3/23 5/4/24
